<svg xmlns="http://www.w3.org/2000/svg" width="50" height="40" viewBox="0 0 50 40">
  <path id="noun-bubble-chat-5150954" d="M140.482,75.218H126.428a9.05,9.05,0,0,0-6.313,2.547,8.585,8.585,0,0,0-2.615,6.15V97.831a9.058,9.058,0,0,0,.393,2.609l-2.857,2.226a1.815,1.815,0,0,1-1.107.383,1.713,1.713,0,0,1-.768-.174,1.769,1.769,0,0,1-.741-.64,1.7,1.7,0,0,1-.277-.926V97.831a7.239,7.239,0,0,1-5.051-2.038A6.867,6.867,0,0,1,105,90.873V76.958a6.867,6.867,0,0,1,2.092-4.92A7.239,7.239,0,0,1,112.143,70h21.428a7.265,7.265,0,0,1,4.371,1.459,6.95,6.95,0,0,1,2.54,3.76Zm7.375,1.739H126.428A7.239,7.239,0,0,0,121.378,79a6.866,6.866,0,0,0-2.092,4.92V97.831a6.866,6.866,0,0,0,2.092,4.92,7.239,7.239,0,0,0,5.051,2.038H138.75l6.214,4.836a1.821,1.821,0,0,0,2.414-.179,1.715,1.715,0,0,0,.479-1.177v-3.479a7.239,7.239,0,0,0,5.051-2.038A6.866,6.866,0,0,0,155,97.831V83.915A6.866,6.866,0,0,0,152.907,79a7.239,7.239,0,0,0-5.051-2.038Z" transform="translate(-105 -70)" fill="#73979c"/>
</svg>
