<svg xmlns="http://www.w3.org/2000/svg" width="20" height="16" viewBox="0 0 20 16">
  <path id="noun-bubble-chat-5150954" d="M119.193,72.087h-5.622a3.62,3.62,0,0,0-2.525,1.019A3.434,3.434,0,0,0,110,75.566v5.566a3.623,3.623,0,0,0,.157,1.044l-1.143.891a.726.726,0,0,1-.443.153.685.685,0,0,1-.307-.07.708.708,0,0,1-.3-.256.682.682,0,0,1-.111-.37V81.132a2.9,2.9,0,0,1-2.02-.815A2.747,2.747,0,0,1,105,78.349V72.783a2.747,2.747,0,0,1,.837-1.968,2.9,2.9,0,0,1,2.02-.815h8.571a2.906,2.906,0,0,1,1.748.584,2.78,2.78,0,0,1,1.016,1.5Zm2.95.7h-8.571a2.9,2.9,0,0,0-2.02.815,2.747,2.747,0,0,0-.837,1.968v5.566a2.747,2.747,0,0,0,.837,1.968,2.9,2.9,0,0,0,2.02.815H118.5l2.486,1.934a.728.728,0,0,0,.966-.072.686.686,0,0,0,.191-.471V83.915a2.9,2.9,0,0,0,2.02-.815A2.747,2.747,0,0,0,125,81.132V75.566a2.747,2.747,0,0,0-.837-1.968,2.9,2.9,0,0,0-2.02-.815Z" transform="translate(-105 -70)" fill="#3494a4"/>
</svg>
