<svg xmlns="http://www.w3.org/2000/svg" xmlns:xlink="http://www.w3.org/1999/xlink" width="124" height="222" viewBox="0 0 124 222">
  <defs>
    <filter id="question-icon" x="0" y="0" width="124" height="222" filterUnits="userSpaceOnUse">
      <feOffset dy="3" input="SourceAlpha"/>
      <feGaussianBlur stdDeviation="3" result="blur"/>
      <feFlood flood-opacity="0.102"/>
      <feComposite operator="in" in2="blur"/>
      <feComposite in="SourceGraphic"/>
    </filter>
  </defs>
  <g transform="matrix(1, 0, 0, 1, 0, 0)" filter="url(#question-icon)">
    <path id="question-icon-2" data-name="question-icon" d="M319.507,175.213h-5.913q1.01-18.178,4.543-30.081t14.638-33.11q8.653-16.3,11.249-25.031a61.689,61.689,0,0,0,2.6-17.673q0-18.322-9.735-29.143t-23.868-10.82q-12.547,0-19.758,5.915t-7.211,12.84q0,5.338,4.327,13.129t4.327,11.83a12.271,12.271,0,0,1-3.317,8.728,10.659,10.659,0,0,1-8.076,3.535q-6.057,0-11.033-5.987T267.3,62.681q0-16.3,13.989-28.854t37.929-12.552q29.709,0,43.7,17.313Q373.3,51.284,373.3,66.721a55.471,55.471,0,0,1-4.687,21.641q-4.687,11.109-17.811,26.113-20.912,23.661-25.6,33.543T319.507,175.213Zm-2.019,17.89a16.008,16.008,0,0,1,16.152,16.158,15.317,15.317,0,0,1-4.759,11.325,15.661,15.661,0,0,1-11.393,4.689,16.006,16.006,0,0,1-16.008-16.014,15.6,15.6,0,0,1,4.687-11.47A15.422,15.422,0,0,1,317.488,193.1Z" transform="translate(-258.3 -15.28)" fill="#fff"/>
  </g>
</svg>
