<svg xmlns="http://www.w3.org/2000/svg" width="40" height="28" viewBox="0 0 40 28">
  <path id="tube-icon" d="M10.829,18.519a6.1,6.1,0,0,0-5.588,5.864C5.117,26.939,5,29.881,5,31.911c0,2.054.119,5.04.245,7.616a6.086,6.086,0,0,0,5.49,5.846C14.116,45.686,19.006,46,25,46c5.978,0,10.859-.312,14.238-.624a6.107,6.107,0,0,0,5.5-5.875c.13-2.713.257-5.817.257-7.59,0-1.754-.124-4.811-.253-7.5a6.116,6.116,0,0,0-5.6-5.892C35.818,18.256,31.019,18,25,18,18.965,18,14.157,18.257,10.829,18.519ZM21,25.975l10.311,5.937L21,37.848Z" transform="translate(-5 -18)" fill="#fff" fill-rule="evenodd"/>
</svg>
